<mxfile host="app.diagrams.net" modified="2023-08-02T11:04:38.332Z" agent="Mozilla/5.0 (Windows NT 10.0; Win64; x64) AppleWebKit/537.36 (KHTML, like Gecko) Chrome/115.0.0.0 Safari/537.36 Edg/115.0.1901.188" etag="ROcuMV9_uXG0fGx5OHIz" version="21.6.5" type="github">
  <diagram name="Page-1" id="13e1069c-82ec-6db2-03f1-153e76fe0fe0">
    <mxGraphModel dx="1971" dy="1194" grid="1" gridSize="10" guides="1" tooltips="1" connect="1" arrows="1" fold="1" page="1" pageScale="1" pageWidth="1100" pageHeight="850" background="none" math="0" shadow="0">
      <root>
        <mxCell id="0" />
        <mxCell id="1" parent="0" />
        <mxCell id="7baba1c4bc27f4b0-2" value="&lt;font style=&quot;font-size: 11px;&quot;&gt;ProtocolFactory$Adaptive&lt;/font&gt;" style="shape=umlLifeline;perimeter=lifelinePerimeter;whiteSpace=wrap;html=1;container=1;collapsible=0;recursiveResize=0;outlineConnect=0;rounded=0;shadow=0;comic=0;labelBackgroundColor=none;strokeWidth=1;fontFamily=Verdana;fontSize=12;align=center;fillColor=#FAE5C7;strokeColor=#0F8B8D;fontColor=#143642;" parent="1" vertex="1">
          <mxGeometry x="335" y="80" width="160" height="650" as="geometry" />
        </mxCell>
        <mxCell id="7baba1c4bc27f4b0-10" value="" style="html=1;points=[];perimeter=orthogonalPerimeter;rounded=0;shadow=0;comic=0;labelBackgroundColor=none;strokeWidth=1;fontFamily=Verdana;fontSize=12;align=center;fillColor=#FAE5C7;strokeColor=#0F8B8D;fontColor=#143642;" parent="7baba1c4bc27f4b0-2" vertex="1">
          <mxGeometry x="75" y="370" width="10" height="70" as="geometry" />
        </mxCell>
        <mxCell id="7baba1c4bc27f4b0-3" value="&lt;article data-content=&quot;[{&amp;quot;type&amp;quot;:&amp;quot;block&amp;quot;,&amp;quot;id&amp;quot;:&amp;quot;VgRU-1690942265634&amp;quot;,&amp;quot;name&amp;quot;:&amp;quot;heading&amp;quot;,&amp;quot;data&amp;quot;:{&amp;quot;level&amp;quot;:&amp;quot;h3&amp;quot;},&amp;quot;nodes&amp;quot;:[{&amp;quot;type&amp;quot;:&amp;quot;text&amp;quot;,&amp;quot;id&amp;quot;:&amp;quot;xGpA-1690942265635&amp;quot;,&amp;quot;leaves&amp;quot;:[{&amp;quot;text&amp;quot;:&amp;quot;JavassistProxyFactory&amp;quot;,&amp;quot;marks&amp;quot;:[{&amp;quot;type&amp;quot;:&amp;quot;bold&amp;quot;},{&amp;quot;type&amp;quot;:&amp;quot;fontSize&amp;quot;,&amp;quot;value&amp;quot;:20}]}]}]}]&quot;&gt;&lt;div style=&quot;line-height: 1.75; font-size: 14px; text-align: left;&quot; id=&quot;Uqh1-1690966903598&quot;&gt;JavassistProxyFactory&lt;/div&gt;&lt;/article&gt;" style="shape=umlLifeline;perimeter=lifelinePerimeter;whiteSpace=wrap;html=1;container=1;collapsible=0;recursiveResize=0;outlineConnect=0;rounded=0;shadow=0;comic=0;labelBackgroundColor=none;strokeWidth=1;fontFamily=Verdana;fontSize=12;align=center;fillColor=#FAE5C7;strokeColor=#0F8B8D;fontColor=#143642;" parent="1" vertex="1">
          <mxGeometry x="520" y="80" width="160" height="660" as="geometry" />
        </mxCell>
        <mxCell id="7baba1c4bc27f4b0-13" value="" style="html=1;points=[];perimeter=orthogonalPerimeter;rounded=0;shadow=0;comic=0;labelBackgroundColor=none;strokeWidth=1;fontFamily=Verdana;fontSize=12;align=center;fillColor=#FAE5C7;strokeColor=#0F8B8D;fontColor=#143642;" parent="7baba1c4bc27f4b0-3" vertex="1">
          <mxGeometry x="75" y="385" width="10" height="55" as="geometry" />
        </mxCell>
        <mxCell id="7baba1c4bc27f4b0-8" value="ServiceConfig" style="shape=umlLifeline;perimeter=lifelinePerimeter;whiteSpace=wrap;html=1;container=1;collapsible=0;recursiveResize=0;outlineConnect=0;rounded=0;shadow=0;comic=0;labelBackgroundColor=none;strokeWidth=1;fontFamily=Verdana;fontSize=12;align=center;fillColor=#FAE5C7;strokeColor=#0F8B8D;fontColor=#143642;" parent="1" vertex="1">
          <mxGeometry x="100" y="80" width="100" height="650" as="geometry" />
        </mxCell>
        <mxCell id="7baba1c4bc27f4b0-9" value="" style="html=1;points=[];perimeter=orthogonalPerimeter;rounded=0;shadow=0;comic=0;labelBackgroundColor=none;strokeWidth=1;fontFamily=Verdana;fontSize=12;align=center;fillColor=#FAE5C7;strokeColor=#0F8B8D;fontColor=#143642;" parent="7baba1c4bc27f4b0-8" vertex="1">
          <mxGeometry x="45" y="100" width="10" height="540" as="geometry" />
        </mxCell>
        <mxCell id="ApxEFvRm06QiGr_pZyAF-4" value="" style="html=1;points=[];perimeter=orthogonalPerimeter;rounded=0;shadow=0;comic=0;labelBackgroundColor=none;strokeWidth=1;fontFamily=Verdana;fontSize=12;align=center;fillColor=#FAE5C7;strokeColor=#0F8B8D;fontColor=#143642;" vertex="1" parent="7baba1c4bc27f4b0-8">
          <mxGeometry x="50" y="170" width="10" height="450" as="geometry" />
        </mxCell>
        <mxCell id="ApxEFvRm06QiGr_pZyAF-9" value="" style="endArrow=classic;html=1;rounded=0;labelBackgroundColor=none;fontColor=default;strokeColor=#A8201A;" edge="1" parent="7baba1c4bc27f4b0-8">
          <mxGeometry width="50" height="50" relative="1" as="geometry">
            <mxPoint x="55.00380952380962" y="160" as="sourcePoint" />
            <mxPoint x="60" y="190" as="targetPoint" />
            <Array as="points">
              <mxPoint x="120" y="160" />
              <mxPoint x="120" y="190" />
            </Array>
          </mxGeometry>
        </mxCell>
        <mxCell id="ApxEFvRm06QiGr_pZyAF-14" value="" style="html=1;points=[];perimeter=orthogonalPerimeter;rounded=0;shadow=0;comic=0;labelBackgroundColor=none;strokeWidth=1;fontFamily=Verdana;fontSize=12;align=center;fillColor=#FAE5C7;strokeColor=#0F8B8D;fontColor=#143642;" vertex="1" parent="7baba1c4bc27f4b0-8">
          <mxGeometry x="55" y="220" width="10" height="390" as="geometry" />
        </mxCell>
        <mxCell id="ApxEFvRm06QiGr_pZyAF-17" value="" style="html=1;points=[];perimeter=orthogonalPerimeter;rounded=0;shadow=0;comic=0;labelBackgroundColor=none;strokeWidth=1;fontFamily=Verdana;fontSize=12;align=center;fillColor=#FAE5C7;strokeColor=#0F8B8D;fontColor=#143642;" vertex="1" parent="7baba1c4bc27f4b0-8">
          <mxGeometry x="60" y="270" width="10" height="50" as="geometry" />
        </mxCell>
        <mxCell id="ApxEFvRm06QiGr_pZyAF-18" value="" style="endArrow=classic;html=1;rounded=0;labelBackgroundColor=none;fontColor=default;strokeColor=#A8201A;" edge="1" parent="7baba1c4bc27f4b0-8">
          <mxGeometry width="50" height="50" relative="1" as="geometry">
            <mxPoint x="65.00380952380962" y="260" as="sourcePoint" />
            <mxPoint x="70" y="290" as="targetPoint" />
            <Array as="points">
              <mxPoint x="130" y="260" />
              <mxPoint x="130" y="290" />
            </Array>
          </mxGeometry>
        </mxCell>
        <mxCell id="ApxEFvRm06QiGr_pZyAF-19" value="" style="html=1;points=[];perimeter=orthogonalPerimeter;rounded=0;shadow=0;comic=0;labelBackgroundColor=none;strokeWidth=1;fontFamily=Verdana;fontSize=12;align=center;fillColor=#FAE5C7;strokeColor=#0F8B8D;fontColor=#143642;" vertex="1" parent="7baba1c4bc27f4b0-8">
          <mxGeometry x="60" y="345" width="10" height="255" as="geometry" />
        </mxCell>
        <mxCell id="ApxEFvRm06QiGr_pZyAF-20" value="" style="endArrow=classic;html=1;rounded=0;labelBackgroundColor=none;fontColor=default;strokeColor=#A8201A;" edge="1" parent="7baba1c4bc27f4b0-8">
          <mxGeometry width="50" height="50" relative="1" as="geometry">
            <mxPoint x="65.00380952380962" y="330" as="sourcePoint" />
            <mxPoint x="70" y="360" as="targetPoint" />
            <Array as="points">
              <mxPoint x="130" y="330" />
              <mxPoint x="130" y="360" />
            </Array>
          </mxGeometry>
        </mxCell>
        <mxCell id="ApxEFvRm06QiGr_pZyAF-11" value="" style="endArrow=classic;html=1;rounded=0;labelBackgroundColor=none;fontColor=default;strokeColor=#A8201A;" edge="1" parent="1">
          <mxGeometry width="50" height="50" relative="1" as="geometry">
            <mxPoint x="155" y="190" as="sourcePoint" />
            <mxPoint x="155" y="220" as="targetPoint" />
            <Array as="points">
              <mxPoint x="215" y="190" />
              <mxPoint x="215" y="220" />
            </Array>
          </mxGeometry>
        </mxCell>
        <mxCell id="ApxEFvRm06QiGr_pZyAF-15" value="" style="endArrow=classic;html=1;rounded=0;labelBackgroundColor=none;fontColor=default;strokeColor=#A8201A;" edge="1" parent="1">
          <mxGeometry width="50" height="50" relative="1" as="geometry">
            <mxPoint x="160.00380952380962" y="290" as="sourcePoint" />
            <mxPoint x="165" y="320" as="targetPoint" />
            <Array as="points">
              <mxPoint x="225" y="290" />
              <mxPoint x="225" y="320" />
            </Array>
          </mxGeometry>
        </mxCell>
        <mxCell id="ApxEFvRm06QiGr_pZyAF-13" value="&lt;font style=&quot;font-size: 11px;&quot;&gt;1.export&lt;/font&gt;" style="text;html=1;align=center;verticalAlign=middle;resizable=0;points=[];autosize=1;strokeColor=none;fillColor=none;labelBackgroundColor=none;fontColor=#143642;rounded=0;" vertex="1" parent="1">
          <mxGeometry x="210" y="190" width="70" height="30" as="geometry" />
        </mxCell>
        <mxCell id="ApxEFvRm06QiGr_pZyAF-21" value="" style="endArrow=classic;html=1;rounded=0;entryX=-0.027;entryY=0.146;entryDx=0;entryDy=0;entryPerimeter=0;labelBackgroundColor=none;fontColor=default;strokeColor=#A8201A;" edge="1" parent="1" target="7baba1c4bc27f4b0-10">
          <mxGeometry width="50" height="50" relative="1" as="geometry">
            <mxPoint x="170.00380952380962" y="460" as="sourcePoint" />
            <mxPoint x="380" y="460" as="targetPoint" />
          </mxGeometry>
        </mxCell>
        <mxCell id="ApxEFvRm06QiGr_pZyAF-22" value="QosProtocolWrapper" style="shape=umlLifeline;perimeter=lifelinePerimeter;whiteSpace=wrap;html=1;container=1;collapsible=0;recursiveResize=0;outlineConnect=0;rounded=0;shadow=0;comic=0;labelBackgroundColor=none;strokeWidth=1;fontFamily=Verdana;fontSize=12;align=center;fillColor=#FAE5C7;strokeColor=#0F8B8D;fontColor=#143642;" vertex="1" parent="1">
          <mxGeometry x="870" y="80" width="140" height="655" as="geometry" />
        </mxCell>
        <mxCell id="ApxEFvRm06QiGr_pZyAF-23" value="" style="html=1;points=[];perimeter=orthogonalPerimeter;rounded=0;shadow=0;comic=0;labelBackgroundColor=none;strokeWidth=1;fontFamily=Verdana;fontSize=12;align=center;fillColor=#FAE5C7;strokeColor=#0F8B8D;fontColor=#143642;" vertex="1" parent="ApxEFvRm06QiGr_pZyAF-22">
          <mxGeometry x="65" y="455" width="10" height="135" as="geometry" />
        </mxCell>
        <mxCell id="ApxEFvRm06QiGr_pZyAF-30" value="" style="endArrow=classic;html=1;rounded=0;labelBackgroundColor=none;fontColor=default;strokeColor=#A8201A;" edge="1" parent="ApxEFvRm06QiGr_pZyAF-22" target="ApxEFvRm06QiGr_pZyAF-22">
          <mxGeometry width="50" height="50" relative="1" as="geometry">
            <mxPoint x="-94.85619047619036" y="490" as="sourcePoint" />
            <mxPoint x="60" y="490" as="targetPoint" />
          </mxGeometry>
        </mxCell>
        <mxCell id="ApxEFvRm06QiGr_pZyAF-37" value="" style="endArrow=classic;html=1;rounded=0;entryX=-0.1;entryY=0.2;entryDx=0;entryDy=0;entryPerimeter=0;labelBackgroundColor=none;fontColor=default;strokeColor=#A8201A;" edge="1" parent="ApxEFvRm06QiGr_pZyAF-22">
          <mxGeometry width="50" height="50" relative="1" as="geometry">
            <mxPoint x="75.0003448275861" y="520" as="sourcePoint" />
            <mxPoint x="239.19000000000005" y="520" as="targetPoint" />
          </mxGeometry>
        </mxCell>
        <mxCell id="ApxEFvRm06QiGr_pZyAF-24" value="" style="endArrow=classic;html=1;rounded=0;entryX=-0.06;entryY=0.151;entryDx=0;entryDy=0;entryPerimeter=0;labelBackgroundColor=none;fontColor=default;strokeColor=#A8201A;" edge="1" parent="1">
          <mxGeometry width="50" height="50" relative="1" as="geometry">
            <mxPoint x="420" y="481" as="sourcePoint" />
            <mxPoint x="594.9999999999999" y="480.54" as="targetPoint" />
          </mxGeometry>
        </mxCell>
        <mxCell id="ApxEFvRm06QiGr_pZyAF-25" value="Protocol$Adaptive" style="shape=umlLifeline;perimeter=lifelinePerimeter;whiteSpace=wrap;html=1;container=1;collapsible=0;recursiveResize=0;outlineConnect=0;rounded=0;shadow=0;comic=0;labelBackgroundColor=none;strokeWidth=1;fontFamily=Verdana;fontSize=12;align=center;fillColor=#FAE5C7;strokeColor=#0F8B8D;fontColor=#143642;" vertex="1" parent="1">
          <mxGeometry x="710" y="80" width="130" height="650" as="geometry" />
        </mxCell>
        <mxCell id="ApxEFvRm06QiGr_pZyAF-26" value="" style="html=1;points=[];perimeter=orthogonalPerimeter;rounded=0;shadow=0;comic=0;labelBackgroundColor=none;strokeWidth=1;fontFamily=Verdana;fontSize=12;align=center;fillColor=#FAE5C7;strokeColor=#0F8B8D;fontColor=#143642;" vertex="1" parent="ApxEFvRm06QiGr_pZyAF-25">
          <mxGeometry x="60" y="450" width="10" height="140" as="geometry" />
        </mxCell>
        <mxCell id="ApxEFvRm06QiGr_pZyAF-27" value="ProtocolFilterWrapper" style="shape=umlLifeline;perimeter=lifelinePerimeter;whiteSpace=wrap;html=1;container=1;collapsible=0;recursiveResize=0;outlineConnect=0;rounded=0;shadow=0;comic=0;labelBackgroundColor=none;strokeWidth=1;fontFamily=Verdana;fontSize=12;align=center;fillColor=#FAE5C7;strokeColor=#0F8B8D;fontColor=#143642;" vertex="1" parent="1">
          <mxGeometry x="1220" y="80" width="140" height="680" as="geometry" />
        </mxCell>
        <mxCell id="ApxEFvRm06QiGr_pZyAF-39" value="" style="endArrow=classic;html=1;rounded=0;entryX=-0.106;entryY=0.527;entryDx=0;entryDy=0;entryPerimeter=0;labelBackgroundColor=none;fontColor=default;strokeColor=#A8201A;" edge="1" parent="ApxEFvRm06QiGr_pZyAF-27" target="ApxEFvRm06QiGr_pZyAF-34">
          <mxGeometry width="50" height="50" relative="1" as="geometry">
            <mxPoint x="75.00380952380965" y="569.58" as="sourcePoint" />
            <mxPoint x="245" y="569.58" as="targetPoint" />
          </mxGeometry>
        </mxCell>
        <mxCell id="ApxEFvRm06QiGr_pZyAF-28" value="" style="html=1;points=[];perimeter=orthogonalPerimeter;rounded=0;shadow=0;comic=0;labelBackgroundColor=none;strokeWidth=1;fontFamily=Verdana;fontSize=12;align=center;fillColor=#FAE5C7;strokeColor=#0F8B8D;fontColor=#143642;" vertex="1" parent="ApxEFvRm06QiGr_pZyAF-27">
          <mxGeometry x="65" y="480" width="10" height="130" as="geometry" />
        </mxCell>
        <mxCell id="ApxEFvRm06QiGr_pZyAF-29" value="" style="endArrow=classic;html=1;rounded=0;labelBackgroundColor=none;fontColor=default;strokeColor=#A8201A;" edge="1" parent="1" target="ApxEFvRm06QiGr_pZyAF-25">
          <mxGeometry width="50" height="50" relative="1" as="geometry">
            <mxPoint x="170.00380952380962" y="550" as="sourcePoint" />
            <mxPoint x="385" y="550" as="targetPoint" />
          </mxGeometry>
        </mxCell>
        <mxCell id="ApxEFvRm06QiGr_pZyAF-33" value="RegistryProtocol" style="shape=umlLifeline;perimeter=lifelinePerimeter;whiteSpace=wrap;html=1;container=1;collapsible=0;recursiveResize=0;outlineConnect=0;rounded=0;shadow=0;comic=0;labelBackgroundColor=none;strokeWidth=1;fontFamily=Verdana;fontSize=12;align=center;fillColor=#FAE5C7;strokeColor=#0F8B8D;fontColor=#143642;" vertex="1" parent="1">
          <mxGeometry x="1410" y="80" width="110" height="690" as="geometry" />
        </mxCell>
        <mxCell id="ApxEFvRm06QiGr_pZyAF-34" value="" style="html=1;points=[];perimeter=orthogonalPerimeter;rounded=0;shadow=0;comic=0;labelBackgroundColor=none;strokeWidth=1;fontFamily=Verdana;fontSize=12;align=center;fillColor=#FAE5C7;strokeColor=#0F8B8D;fontColor=#143642;" vertex="1" parent="ApxEFvRm06QiGr_pZyAF-33">
          <mxGeometry x="50" y="490" width="10" height="150" as="geometry" />
        </mxCell>
        <mxCell id="ApxEFvRm06QiGr_pZyAF-35" value="ProtocolListenerWrapper" style="shape=umlLifeline;perimeter=lifelinePerimeter;whiteSpace=wrap;html=1;container=1;collapsible=0;recursiveResize=0;outlineConnect=0;rounded=0;shadow=0;comic=0;labelBackgroundColor=none;strokeWidth=1;fontFamily=Verdana;fontSize=12;align=center;fillColor=#FAE5C7;strokeColor=#0F8B8D;fontColor=#143642;" vertex="1" parent="1">
          <mxGeometry x="1030" y="80" width="160" height="670" as="geometry" />
        </mxCell>
        <mxCell id="ApxEFvRm06QiGr_pZyAF-36" value="" style="html=1;points=[];perimeter=orthogonalPerimeter;rounded=0;shadow=0;comic=0;labelBackgroundColor=none;strokeWidth=1;fontFamily=Verdana;fontSize=12;align=center;fillColor=#FAE5C7;strokeColor=#0F8B8D;fontColor=#143642;" vertex="1" parent="ApxEFvRm06QiGr_pZyAF-35">
          <mxGeometry x="75" y="470" width="10" height="130" as="geometry" />
        </mxCell>
        <mxCell id="ApxEFvRm06QiGr_pZyAF-40" value="&lt;font style=&quot;font-size: 11px;&quot;&gt;2.doExport&lt;/font&gt;" style="text;html=1;align=center;verticalAlign=middle;resizable=0;points=[];autosize=1;strokeColor=none;fillColor=none;labelBackgroundColor=none;fontColor=#143642;rounded=0;" vertex="1" parent="1">
          <mxGeometry x="215" y="240" width="80" height="30" as="geometry" />
        </mxCell>
        <mxCell id="ApxEFvRm06QiGr_pZyAF-41" value="&lt;font style=&quot;font-size: 11px;&quot;&gt;3.doExportUrls&lt;/font&gt;" style="text;html=1;align=center;verticalAlign=middle;resizable=0;points=[];autosize=1;strokeColor=none;fillColor=none;labelBackgroundColor=none;fontColor=#143642;rounded=0;" vertex="1" parent="1">
          <mxGeometry x="220" y="290" width="100" height="30" as="geometry" />
        </mxCell>
        <mxCell id="ApxEFvRm06QiGr_pZyAF-42" value="&lt;font style=&quot;font-size: 11px;&quot;&gt;4.loadRegistries&lt;/font&gt;" style="text;html=1;align=center;verticalAlign=middle;resizable=0;points=[];autosize=1;strokeColor=none;fillColor=none;labelBackgroundColor=none;fontColor=#143642;rounded=0;" vertex="1" parent="1">
          <mxGeometry x="225" y="340" width="110" height="30" as="geometry" />
        </mxCell>
        <mxCell id="ApxEFvRm06QiGr_pZyAF-43" value="&lt;font style=&quot;font-size: 11px;&quot;&gt;5.&lt;/font&gt;doExportUrlsFor1Protocol" style="text;html=1;align=center;verticalAlign=middle;resizable=0;points=[];autosize=1;strokeColor=none;fillColor=none;labelBackgroundColor=none;fontColor=#143642;rounded=0;" vertex="1" parent="1">
          <mxGeometry x="200" y="390" width="170" height="30" as="geometry" />
        </mxCell>
        <mxCell id="ApxEFvRm06QiGr_pZyAF-44" value="&lt;span style=&quot;font-size: 11px;&quot;&gt;6.getInvoker&lt;/span&gt;" style="text;html=1;align=center;verticalAlign=middle;resizable=0;points=[];autosize=1;strokeColor=none;fillColor=none;labelBackgroundColor=none;fontColor=#143642;rounded=0;" vertex="1" parent="1">
          <mxGeometry x="240" y="430" width="90" height="30" as="geometry" />
        </mxCell>
        <mxCell id="ApxEFvRm06QiGr_pZyAF-45" value="&lt;span style=&quot;font-size: 11px;&quot;&gt;7.getInvoker&lt;/span&gt;" style="text;html=1;align=center;verticalAlign=middle;resizable=0;points=[];autosize=1;strokeColor=none;fillColor=none;labelBackgroundColor=none;fontColor=#143642;rounded=0;" vertex="1" parent="1">
          <mxGeometry x="430" y="450" width="90" height="30" as="geometry" />
        </mxCell>
        <mxCell id="ApxEFvRm06QiGr_pZyAF-46" value="&lt;span style=&quot;font-size: 11px;&quot;&gt;8.export&lt;/span&gt;" style="text;html=1;align=center;verticalAlign=middle;resizable=0;points=[];autosize=1;strokeColor=none;fillColor=none;labelBackgroundColor=none;fontColor=#143642;rounded=0;" vertex="1" parent="1">
          <mxGeometry x="280" y="550" width="70" height="30" as="geometry" />
        </mxCell>
        <mxCell id="ApxEFvRm06QiGr_pZyAF-47" value="&lt;span style=&quot;font-size: 11px;&quot;&gt;9.export&lt;/span&gt;" style="text;html=1;align=center;verticalAlign=middle;resizable=0;points=[];autosize=1;strokeColor=none;fillColor=none;labelBackgroundColor=none;fontColor=#143642;rounded=0;" vertex="1" parent="1">
          <mxGeometry x="830" y="540" width="70" height="30" as="geometry" />
        </mxCell>
        <mxCell id="ApxEFvRm06QiGr_pZyAF-49" value="&lt;span style=&quot;font-size: 11px;&quot;&gt;11.export&lt;/span&gt;" style="text;html=1;align=center;verticalAlign=middle;resizable=0;points=[];autosize=1;strokeColor=none;fillColor=none;labelBackgroundColor=none;fontColor=#143642;rounded=0;" vertex="1" parent="1">
          <mxGeometry x="1200" y="590" width="70" height="30" as="geometry" />
        </mxCell>
        <mxCell id="ApxEFvRm06QiGr_pZyAF-50" value="&lt;span style=&quot;font-size: 11px;&quot;&gt;12.export&lt;/span&gt;" style="text;html=1;align=center;verticalAlign=middle;resizable=0;points=[];autosize=1;strokeColor=none;fillColor=none;labelBackgroundColor=none;fontColor=#143642;rounded=0;" vertex="1" parent="1">
          <mxGeometry x="1350" y="620" width="70" height="30" as="geometry" />
        </mxCell>
        <mxCell id="ApxEFvRm06QiGr_pZyAF-51" value="&lt;span style=&quot;font-size: 11px;&quot;&gt;10.export&lt;/span&gt;" style="text;html=1;align=center;verticalAlign=middle;resizable=0;points=[];autosize=1;strokeColor=none;fillColor=none;labelBackgroundColor=none;fontColor=#143642;rounded=0;" vertex="1" parent="1">
          <mxGeometry x="1000" y="570" width="70" height="30" as="geometry" />
        </mxCell>
        <mxCell id="ApxEFvRm06QiGr_pZyAF-38" value="" style="endArrow=classic;html=1;rounded=0;entryX=-0.014;entryY=0.25;entryDx=0;entryDy=0;entryPerimeter=0;labelBackgroundColor=none;fontColor=default;strokeColor=#A8201A;" edge="1" parent="1">
          <mxGeometry width="50" height="50" relative="1" as="geometry">
            <mxPoint x="1115.0038095238097" y="619.58" as="sourcePoint" />
            <mxPoint x="1285" y="619.58" as="targetPoint" />
          </mxGeometry>
        </mxCell>
      </root>
    </mxGraphModel>
  </diagram>
</mxfile>
